<?xml version="1.0" encoding="utf-8"?>
<!-- Generator: Adobe Illustrator 21.0.0, SVG Export Plug-In . SVG Version: 6.00 Build 0)  -->
<svg version="1.1" id="Layer_1" xmlns="http://www.w3.org/2000/svg" xmlns:xlink="http://www.w3.org/1999/xlink" x="0px" y="0px"
	 viewBox="0 0 960 560" style="enable-background:new 0 0 960 560;" xml:space="preserve">
<style type="text/css">
	.st0{fill:none;}
	.st1{fill:#009245;}
	.st2{font-family:'Tahoma',sans-serif;}
	.st3{font-size:180px; font-weight: 600}
	.st4{fill:#231F20;}
	.st5{fill:none;stroke:#231F20;stroke-linecap:round;stroke-miterlimit:10;}
	.st6{fill:#FFFFFF;}
	.st7{fill:#39B54A;}
	.st8{fill:#00FF00;}
	.st9{font-size:264.3172px; font-weight: 600}
</style>
<polygon class="st0" points="449,353 951,317 951,411 449,447 "/>
<text transform="matrix(0.5908 0 0 1 444 479.0527)" class="st1 st2 st3">BOOKING</text>
<g>
	<g>
		<path class="st4" d="M-280,180.5c1.9,0,1.9-3,0-3S-281.9,180.5-280,180.5L-280,180.5z"/>
	</g>
</g>
<path class="st1" d="M225.5,179c112.8,0,209.7,21.1,209.7,147.9c0,15.1,0.6,70-29.6,112.4c-37.9,53.2-100.7,54.7-164,56.2
	c-64.5,1.6-134.4,3.2-179-54.4c-35.8-46.2-36.1-105.6-36-113.8c0.1-12.8-0.6-56.4,23.8-91.2C83.5,189.1,148.3,179,225.5,179z"/>
<path class="st5" d="M136,281"/>
<path class="st6" d="M227.6,218.5c85.8,0.6,174.1,26,173,42c-1.2,16.9-102.6,23.4-163,23c-71.5-0.5-175.9-11.1-176.5-28.4
	C60.5,239.2,146.7,217.9,227.6,218.5z"/>
<path class="st7" d="M340.6,82.7c10.6-13.2,27-54.7,40.9-50.2c11.4,3.7,17.3,13.1,19.1,16.2C378.7,110.8,356.9,209,335,271.1
	l-109.5,0.4L340.6,82.7z"/>
<path class="st8" d="M189.3,146.2c36.2,36.2,53.9,77,39.7,91.3s-55.1-3.5-91.3-39.7s-84.5-83-70.2-97.3S153.1,110,189.3,146.2z"/>
<path class="st8" d="M94.5,205.5c25.2,5.4,64.9,15,82.9,40.3c1.4,2,3.3,4.9,2.7,8.2c-2.4,14.8-50.1,25.9-87.7,16.5
	c-49.1-12.3-86.1-61.3-78-75C18.3,189,43.7,194.5,94.5,205.5z"/>
<text transform="matrix(0.6174 0 0 1 444 270.6616)" class="st1 st2 st9">HIDU</text>
<path class="st6" d="M215.8,366.5c-1,49.5-1,49.5-1,49.5h21.5v-88h-21.5L215.8,366.5z"/>
<path class="st6" d="M219.9,381.8c50.4,1,50.4,1,50.4,1v-21.5h-89.7v21.5L219.9,381.8z"/>
</svg>
