<svg width="1440" height="320" viewBox="0 0 1440 320" fill="none" xmlns="http://www.w3.org/2000/svg">
<g clip-path="url(#clip0)">
<mask id="mask0" mask-type="alpha" maskUnits="userSpaceOnUse" x="-240" y="-277" width="1920" height="597">
<path d="M1680 -277H-240V222.925C-118.605 279.022 265.249 320 720 320C1174.75 320 1558.6 279.022 1680 222.925V-277Z" fill="#BCDEFF"/>
</mask>
<g mask="url(#mask0)">
<path d="M1680 -277H-240V319.563L1680 320V-277Z" fill="url(#paint0_linear)"/>
<path opacity="0.2" d="M-169.54 215.984C-169.418 204.147 -160.682 194.167 -148.966 192.478L83.5755 158.954C98.0435 156.868 111 168.09 111 182.708V576.061C111 591.095 97.3351 602.428 82.5604 599.647L-153.234 555.262C-164.669 553.11 -172.913 543.064 -172.793 531.429L-169.54 215.984Z" fill="white"/>
</g>
<path opacity="0.2" d="M773.54 -261.016C773.418 -272.853 764.682 -282.833 752.966 -284.522L520.425 -318.046C505.957 -320.132 493 -308.91 493 -294.292V99.0609C493 114.095 506.665 125.428 521.44 122.647L757.234 78.2621C768.669 76.1096 776.913 66.0643 776.793 54.4288L773.54 -261.016Z" fill="white"/>
<path opacity="0.2" d="M1430.15 106.13C1418.33 103.15 1406.16 109.498 1401.84 120.893L1355.41 243.353C1350.37 256.638 1357.92 271.366 1371.64 275.043L1512.75 312.853C1526.75 316.606 1540.86 307.177 1542.75 292.801L1560.12 160.792C1561.71 148.718 1554 137.369 1542.19 134.391L1430.15 106.13Z" fill="white"/>
</g>
<defs>
<linearGradient id="paint0_linear" x1="1761.17" y1="351.271" x2="713.634" y2="-1010.55" gradientUnits="userSpaceOnUse">
<stop stop-color="#65B5FF"/>
<stop offset="1" stop-color="#2C74DF"/>
</linearGradient>
<clipPath id="clip0">
<rect width="1440" height="320" fill="white"/>
</clipPath>
</defs>
</svg>
