<svg width="158" height="100" viewBox="0 0 158 100" fill="none" xmlns="http://www.w3.org/2000/svg">
<path opacity="0.2" d="M105.32 98.6123L7.28648 41.7603C5.16335 40.5113 5.16335 37.4119 7.28648 36.2092L48.1338 12.6172C50.7647 11.0907 53.9955 11.0907 56.6264 12.6172L154.845 69.5155C157.337 70.9496 157.337 74.5578 154.845 75.9918L115.751 98.6123C112.52 100.463 108.551 100.463 105.32 98.6123Z" fill="black"/>
<path d="M5.76335 26.6335C5.3941 27.9751 5.85567 29.5016 7.24031 30.288L105.32 87.1401C108.551 88.9904 112.52 88.9904 115.705 87.1401L154.845 64.5195C156.368 63.6406 156.968 61.929 156.598 60.4025C156.598 60.4025 158.122 64.7971 156.368 68.3127C156.322 68.4515 156.229 68.544 156.183 68.6828C156.183 68.6828 156.183 68.7291 156.137 68.7291C155.814 69.2379 155.398 69.6543 154.845 69.9781L115.751 92.5986C112.52 94.449 108.551 94.449 105.366 92.5986L7.28647 35.7928C6.50183 35.3302 5.99413 34.6363 5.80951 33.8499C4.56331 30.6118 5.76335 26.6335 5.76335 26.6335Z" fill="#B1C2D8"/>
<path d="M157.198 64.0107C156.875 64.7046 156.367 65.306 155.629 65.7223L116.12 88.5742C112.843 90.4708 108.874 90.4708 105.597 88.5742L6.45543 31.1207C5.90157 30.7969 5.53232 30.3806 5.25539 29.918C5.3477 28.0676 5.80925 26.6336 5.80925 26.6336L8.80934 27.8826L9.77861 28.7615L48.1336 6.60352C50.7644 5.07698 53.9953 5.07698 56.6261 6.60352L153.183 62.5767L153.275 61.9291L156.598 60.4025C156.598 60.4025 157.152 61.9753 157.198 64.0107Z" fill="#B1C2D8"/>
<path d="M105.32 87.1401L7.28648 30.288C5.16335 29.039 5.16335 25.9396 7.28648 24.7369L48.1338 1.14491C50.7647 -0.381635 53.9955 -0.381635 56.6264 1.14491L154.845 58.0433C157.337 59.4773 157.337 63.0855 154.845 64.5195L115.751 87.1401C112.52 88.9904 108.551 88.9904 105.32 87.1401Z" fill="url(#paint0_linear)"/>
<path d="M7.28652 24.7369L48.1338 1.14491C50.7647 -0.381635 53.9955 -0.381635 56.6264 1.14491L60.5034 3.36533C58.4264 2.90274 56.1648 3.18029 54.2725 4.29051L12.8713 28.2526C11.1635 29.224 10.7943 31.3982 11.8097 32.8785L7.33266 30.288C5.11721 29.0852 5.11723 25.9859 7.28652 24.7369Z" fill="white"/>
<path d="M108.366 83.3931L148.521 60.1711C150.321 59.1534 150.829 57.0255 150.137 55.314L154.845 58.0432C157.337 59.4773 157.337 63.0854 154.845 64.5195L115.751 87.14C112.52 88.9904 108.551 88.9904 105.366 87.14L101.074 84.642C103.52 85.1046 106.105 84.6883 108.366 83.3931Z" fill="white"/>
<path d="M6.31677 34.2662L105.227 91.5808C108.458 93.4774 112.474 93.4774 115.705 91.5808L155.213 68.7752C155.767 68.4514 156.183 67.9888 156.506 67.5263C156.506 67.5263 156.506 67.48 156.552 67.48C156.644 67.3412 156.69 67.2487 156.737 67.1099C156.829 66.9249 156.921 66.7399 156.967 66.5548C156.829 67.1562 156.644 67.7576 156.367 68.3589C156.321 68.4977 156.229 68.5902 156.183 68.729C156.183 68.729 156.183 68.7752 156.136 68.7752C155.813 69.2841 155.398 69.7004 154.844 70.0242L115.751 92.6448C112.52 94.4951 108.55 94.4951 105.366 92.6448L7.28603 35.7927C6.50139 35.3301 5.99368 34.6363 5.80905 33.8499C5.94753 33.9886 6.13214 34.1274 6.31677 34.2662Z" fill="#B1C2D8"/>
<path opacity="0.2" d="M105.32 87.1401L7.28654 30.288C5.90189 29.5016 5.44033 27.9288 5.80957 26.5873L112.29 88.3428C109.936 88.7591 107.443 88.3428 105.32 87.1401Z" fill="white"/>
<path opacity="0.3" d="M51.6415 0.0347337C53.3492 -0.104043 55.1031 0.266028 56.6263 1.14495L154.844 58.0433C155.906 58.6447 156.506 59.6623 156.645 60.7263L51.6415 0.0347337Z" fill="#638ABC"/>
<path d="M45.9183 4.42938C46.4721 4.10557 47.3952 4.10557 47.9952 4.42938C48.5491 4.75319 48.5491 5.3083 47.9952 5.63211C47.4414 5.95592 46.5183 5.95592 45.9183 5.63211C45.3182 5.3083 45.3182 4.75319 45.9183 4.42938Z" fill="#B1C2D8"/>
<path d="M20.4407 19.417C20.9023 19.1395 21.6869 19.1395 22.1485 19.417C22.61 19.6946 22.61 20.1572 22.1485 20.4347C21.6869 20.7123 20.9023 20.7123 20.4407 20.4347C19.9792 20.1572 19.9792 19.6946 20.4407 19.417Z" fill="#B1C2D8"/>
<path d="M17.1175 21.3138C17.579 21.0362 18.3637 21.0362 18.8252 21.3138C19.2868 21.5913 19.2868 22.0539 18.8252 22.3314C18.3637 22.609 17.579 22.609 17.1175 22.3314C16.6559 22.0539 16.6559 21.5913 17.1175 21.3138Z" fill="#B1C2D8"/>
<path d="M24.964 16.9654L35.7182 10.7204C35.949 10.5816 36.2721 10.5816 36.549 10.7204L37.1028 11.0442C37.3798 11.183 37.3798 11.5531 37.1028 11.6918L26.3949 17.8905C26.1179 18.0756 25.7487 18.0756 25.4717 17.8905L24.964 17.613C24.6871 17.4742 24.6871 17.1041 24.964 16.9654Z" fill="#B1C2D8"/>
<path d="M40.2415 7.75987L42.6877 6.37211H42.7338C43.2415 6.09455 44.0723 6.09455 44.58 6.37211C45.0877 6.64966 45.0877 7.11225 44.6262 7.43606H44.58C44.58 7.43606 44.58 7.43606 44.5339 7.43606H44.4877L42.0877 8.82382C42.0877 8.82382 42.0877 8.82382 42.0415 8.82382L41.9953 8.87008C41.4876 9.14763 40.703 9.10138 40.1953 8.82382C39.6876 8.54627 39.6876 8.08368 40.2415 7.75987Z" fill="#B1C2D8"/>
<path d="M18.5483 42.3153L17.5329 41.7139V36.2554L18.5483 36.8567V42.3153Z" fill="#B1C2D8"/>
<path d="M33.4565 50.9657L32.395 50.3643V44.8595L33.4565 45.4609V50.9657Z" fill="#B1C2D8"/>
<g opacity="0.8">
<path d="M67.5652 32.1384L85.1041 21.9614L86.3965 22.7016L68.8114 32.8785L67.5652 32.1384Z" fill="#F2F2F2"/>
<path d="M66.2731 32.8785L67.5654 33.6187L45.2263 46.5249L43.9801 45.7848L66.2731 32.8785Z" fill="#F2F2F2"/>
<path d="M60.5496 39.1235L87.6889 23.4418L88.9351 24.1819L61.842 39.8637L60.5496 39.1235Z" fill="#F2F2F2"/>
<path d="M60.5498 40.6037L47.7648 48.0051L46.5186 47.2649L59.3036 39.8635L60.5498 40.6037Z" fill="#F2F2F2"/>
<path d="M94.0122 27.1424L52.8879 50.9657L51.5956 50.2255L92.766 26.4022L94.0122 27.1424Z" fill="#F2F2F2"/>
<path d="M96.5508 28.6226L76.2887 40.3723L74.9963 39.6322L95.3046 27.8824L96.5508 28.6226Z" fill="#F2F2F2"/>
<path d="M77.7655 32.1384L90.2274 24.922L91.4736 25.6621L79.0117 32.8785L77.7655 32.1384Z" fill="#F2F2F2"/>
<path d="M77.7656 33.6187L50.3494 49.4855L49.0571 48.7453L76.4733 32.8785L77.7656 33.6187Z" fill="#F2F2F2"/>
</g>
<path opacity="0.8" d="M84.2732 41.8526L101.858 31.6757L103.104 32.4158L85.5655 42.5465L84.2732 41.8526Z" fill="#F2F2F2"/>
<path opacity="0.8" d="M83.0268 42.5464L84.2729 43.2865L61.98 56.1927L60.6876 55.4526L83.0268 42.5464Z" fill="#F2F2F2"/>
<path opacity="0.8" d="M77.3035 48.8377L104.397 33.156L105.689 33.8961L78.5497 49.5779L77.3035 48.8377Z" fill="#F2F2F2"/>
<path opacity="0.8" d="M77.3037 50.2716L64.5187 57.6731L63.2725 56.9329L76.0114 49.5778L77.3037 50.2716Z" fill="#F2F2F2"/>
<path opacity="0.8" d="M110.766 36.8105L69.5957 60.6337L68.3495 59.8936L109.474 36.0703L110.766 36.8105Z" fill="#F2F2F2"/>
<path opacity="0.8" d="M113.305 38.2908L92.9964 50.0405L91.7502 49.3004L112.012 37.5507L113.305 38.2908Z" fill="#F2F2F2"/>
<path opacity="0.8" d="M94.4733 41.8062L106.935 34.5898L108.228 35.33L95.7656 42.5464L94.4733 41.8062Z" fill="#F2F2F2"/>
<path opacity="0.8" d="M94.4731 43.2865L67.057 59.1533L65.8108 58.4132L93.2269 42.5464L94.4731 43.2865Z" fill="#F2F2F2"/>
<path opacity="0.8" d="M101.028 51.5207L118.613 41.3438L119.859 42.0839L102.274 52.2608L101.028 51.5207Z" fill="#F2F2F2"/>
<path opacity="0.8" d="M99.735 52.2609L101.027 53.001L78.7344 65.9072L77.4421 65.1671L99.735 52.2609Z" fill="#F2F2F2"/>
<path opacity="0.8" d="M94.0115 58.5058L121.151 42.8241L122.397 43.5642L95.3039 59.246L94.0115 58.5058Z" fill="#F2F2F2"/>
<path opacity="0.8" d="M94.0122 59.986L81.2734 67.3874L79.981 66.6473L92.766 59.2458L94.0122 59.986Z" fill="#F2F2F2"/>
<path opacity="0.8" d="M127.474 46.5247L86.3499 70.3017L85.0575 69.5616L126.228 45.7845L127.474 46.5247Z" fill="#F2F2F2"/>
<path opacity="0.8" d="M130.059 48.0049L109.751 59.7084L108.458 58.9682L128.767 47.2648L130.059 48.0049Z" fill="#F2F2F2"/>
<path opacity="0.8" d="M111.228 51.5207L123.69 44.3043L124.936 45.0445L112.474 52.2608L111.228 51.5207Z" fill="#F2F2F2"/>
<path opacity="0.8" d="M111.228 53.001L83.8114 68.8678L82.519 68.1276L109.935 52.2609L111.228 53.001Z" fill="#F2F2F2"/>
<path d="M135.737 57.8584L140.86 54.8978C141.137 54.7128 141.506 54.7128 141.829 54.8978L146.814 57.8121C147.137 57.9972 147.137 58.506 146.814 58.691L142.014 61.4666C141.598 61.6979 141.137 61.6979 140.721 61.4666L135.737 58.5985C135.46 58.4135 135.46 58.0434 135.737 57.8584Z" fill="white"/>
<path d="M127.013 62.9469L132.137 59.9863C132.414 59.8013 132.783 59.8013 133.106 59.9863L138.091 62.8544C138.414 63.0394 138.414 63.5482 138.091 63.7333L133.291 66.5088C132.875 66.7401 132.414 66.7401 131.998 66.5088L127.013 63.6408C126.737 63.4557 126.737 63.0857 127.013 62.9469Z" fill="white"/>
<path d="M118.29 67.9891L123.414 65.0285C123.69 64.8435 124.06 64.8435 124.383 65.0285L129.368 67.8966C129.691 68.0816 129.691 68.5905 129.368 68.7755L124.567 71.551C124.152 71.7823 123.69 71.7823 123.275 71.551L118.29 68.683C118.013 68.498 118.013 68.1279 118.29 67.9891Z" fill="white"/>
<path d="M109.567 73.0312L114.69 70.0707C114.967 69.8856 115.336 69.8856 115.659 70.0707L120.644 72.9387C120.967 73.1237 120.967 73.6326 120.644 73.8176L115.844 76.5932C115.428 76.8244 114.967 76.8244 114.551 76.5932L109.567 73.7251C109.29 73.5401 109.29 73.17 109.567 73.0312Z" fill="white"/>
<path d="M100.844 78.0736L105.967 75.113C106.244 74.928 106.613 74.928 106.936 75.113L111.921 77.9811C112.244 78.1661 112.244 78.675 111.921 78.86L107.121 81.6355C106.705 81.8668 106.244 81.8668 105.828 81.6355L100.844 78.7675C100.613 78.5824 100.613 78.2124 100.844 78.0736Z" fill="white"/>
<path d="M139.521 77.1483L129.921 82.6993V81.2653L139.521 75.7605V77.1483Z" fill="#569CF5"/>
<path opacity="0.1" d="M75.6435 94.0114C95.7833 94.0114 112.11 85.3523 112.11 74.6706C112.11 63.989 95.7833 55.3298 75.6435 55.3298C55.5038 55.3298 39.1772 63.989 39.1772 74.6706C39.1772 85.3523 55.5038 94.0114 75.6435 94.0114Z" fill="black"/>
<path d="M75.6435 84.3667C95.7833 84.3667 112.11 75.7075 112.11 65.0259C112.11 54.3442 95.7833 45.6851 75.6435 45.6851C55.5038 45.6851 39.1772 54.3442 39.1772 65.0259C39.1772 75.7075 55.5038 84.3667 75.6435 84.3667Z" fill="white"/>
<path d="M75.4608 82.3597C56.9078 82.3597 41.7363 74.6051 41.7363 65.1171C41.7363 55.6292 56.9078 47.8746 75.4608 47.8746C94.0138 47.8746 109.185 55.6292 109.185 65.1171C109.185 74.6051 94.1052 82.3597 75.4608 82.3597ZM75.4608 48.6957C57.2733 48.6957 42.5589 56.0854 42.5589 65.1171C42.5589 74.1489 57.3647 81.5386 75.4608 81.5386C93.6482 81.5386 108.363 74.1489 108.363 65.1171C108.454 55.9941 93.6482 48.6957 75.4608 48.6957Z" fill="#E1EDFE"/>
<path d="M75.5523 56.0855C86.4282 56.0855 95.2935 60.4646 96.2988 66.1208C96.3902 65.7559 96.4816 65.391 96.4816 65.0261C96.573 58.9137 87.1594 53.896 75.5523 53.896C63.9453 53.896 54.623 58.9137 54.623 65.0261C54.623 65.391 54.8058 65.7559 54.8058 66.1208C55.8112 60.4646 64.6764 56.0855 75.5523 56.0855Z" fill="#FFC5AE"/>
<path d="M75.5522 76.156C86.4281 76.156 95.2933 71.7769 96.2986 66.1207C95.2933 60.4644 86.4281 56.0853 75.5522 56.0853C64.6762 56.0853 55.811 60.4644 54.8057 66.1207C55.811 71.7769 64.6762 76.156 75.5522 76.156Z" fill="#B1C2D8"/>
<path d="M101.142 67.5802C103.153 64.8433 101.325 61.3766 99.7713 58.8221C96.4811 53.4396 88.6212 47.1447 82.315 51.615C81.1269 52.436 79.6646 54.5343 78.5679 56.9063C79.2076 57.9098 79.9388 58.6397 81.1269 59.0958C82.8634 59.6432 82.9548 59.0046 84.2343 60.1906C86.3364 62.1064 85.9708 65.117 88.6212 66.7592C91.0889 68.3101 91.7286 69.7698 94.1049 71.5031C94.6533 71.9593 95.3844 72.233 96.1156 72.4154C96.6639 71.7768 97.1209 71.1382 97.6693 70.5908C98.766 69.4961 100.228 68.7662 101.142 67.5802Z" fill="#FFD364"/>
<path d="M88.6212 66.7591C85.9708 65.117 86.3363 62.1976 84.2343 60.1905C82.9547 59.0045 82.8634 59.6432 81.1269 59.0958C79.9387 58.7309 79.2076 57.9098 78.5678 56.9062C77.1055 60.0081 76.283 63.6573 77.3797 65.938C77.2883 66.303 77.2883 66.6679 77.3797 66.9416C77.7453 68.2188 78.5678 68.5837 79.6646 68.9486C79.5732 71.6855 80.3043 73.9663 83.2289 74.8786C86.5191 75.8821 90.9974 76.0646 94.0135 74.3312C94.9274 73.8751 95.5672 73.1452 96.2069 72.4154C95.4758 72.1417 94.7446 71.868 94.1962 71.5031C91.7286 69.7697 91.0888 68.31 88.6212 66.7591Z" fill="#EFC849"/>
<path d="M80.4879 49.7461C80.4879 49.7461 78.7514 51.5707 78.2945 53.669C77.8375 55.7673 78.7514 56.9533 78.7514 56.9533C78.7514 56.9533 80.4879 56.1322 81.0363 53.9427C81.5847 51.7532 80.4879 49.7461 80.4879 49.7461Z" fill="#3A964F"/>
<path d="M82.224 54.2609C84.6003 54.4434 85.6056 55.7206 85.6056 55.7206C85.6056 55.7206 84.1433 57.2715 81.6757 57.7277C80.4876 58.0013 78.6597 56.9066 78.6597 56.9066C78.6597 56.9066 79.4822 54.0784 82.224 54.2609Z" fill="#3A964F"/>
<path d="M92.1857 67.4891C92.1857 67.4891 90.4492 69.3137 89.9922 71.412C89.5352 73.5103 90.4492 74.6963 90.4492 74.6963C90.4492 74.6963 92.1857 73.8752 92.7341 71.6857C93.3738 69.4962 92.1857 67.4891 92.1857 67.4891Z" fill="#3A964F"/>
<path d="M94.0136 71.9595C96.3898 72.142 97.3952 73.4192 97.3952 73.4192C97.3952 73.4192 95.9329 74.9701 93.4652 75.4263C92.2771 75.7 90.4492 74.6052 90.4492 74.6052C90.4492 74.6052 91.1804 71.7771 94.0136 71.9595Z" fill="#3A964F"/>
<path d="M46.3973 61.6505C46.3973 61.6505 46.0318 65.8471 46.3973 67.1243C47.6769 71.8683 51.424 75.9737 61.7516 79.2579C72.0791 82.5422 77.1058 76.1561 77.7455 73.5104C78.3853 70.7735 78.9337 62.7453 78.9337 62.7453L46.3973 61.6505Z" fill="#BF1A1A"/>
<path d="M73.9072 46.78C65.3161 45.0466 56.725 51.2503 49.9619 56.6329C43.1073 62.1067 46.4889 67.1244 57.2734 73.6017C68.0579 80.079 78.2941 76.1561 78.8424 64.6611C79.5736 50.7941 80.6703 48.2397 73.9072 46.78Z" fill="#E85350"/>
<path d="M74.8209 52.0713C74.8209 53.4397 72.7188 54.6257 70.0684 54.6257C67.418 54.6257 65.3159 53.531 65.3159 52.0713C65.3159 50.6116 67.418 49.5168 70.0684 49.5168C72.7188 49.5168 74.8209 50.7028 74.8209 52.0713Z" fill="white"/>
<path d="M72.7188 52.0713C72.7188 52.8923 71.5307 53.5309 70.0684 53.5309C68.6061 53.5309 67.418 52.8923 67.418 52.0713C67.418 51.2502 68.6061 50.6116 70.0684 50.6116C71.5307 50.7028 72.7188 51.3414 72.7188 52.0713Z" fill="#E22626"/>
<path fill-rule="evenodd" clip-rule="evenodd" d="M64.163 55.4613C62.6666 54.0645 61.4769 53.0748 61.4769 53.0748C61.4769 53.0748 61.9693 53.8688 63.3198 55.7488C61.9554 56.2267 60.3741 56.8443 59.0092 57.545C58.8823 57.6101 58.7518 57.6791 58.6179 57.7516C57.563 56.7983 56.8158 56.1767 56.8158 56.1767C56.8158 56.1767 57.1797 56.7077 58.14 58.017C56.8074 58.7743 55.2357 59.7997 53.8462 60.7451C52.5857 59.5988 51.6069 58.8222 51.6069 58.8222C51.6069 58.8222 52.1335 59.6799 53.1866 61.1971C51.5083 62.3552 50.2354 63.2925 50.2354 63.2925C50.2354 63.2925 51.6361 62.7391 53.6296 61.8296C54.4003 62.9208 55.3912 64.2769 56.6023 65.8444C54.9785 66.9762 53.8001 67.854 53.8001 67.854C53.8001 67.854 55.1189 67.2557 57.009 66.3573C58.2902 67.9258 59.5902 69.4069 60.6671 70.5971C59.8247 71.1958 59.2832 71.5945 59.2832 71.5945C59.2832 71.5945 59.9189 71.3434 60.9433 70.9014C62.2828 72.3725 63.2139 73.3279 63.2139 73.3279C63.2139 73.3279 62.5487 72.1571 61.6091 70.6109C62.8835 70.0488 64.5592 69.2753 66.3177 68.368C68.1328 70.4935 69.5195 72.0508 69.5195 72.0508C69.5195 72.0508 68.4638 70.1744 67.0904 67.9634C67.3816 67.8085 67.6739 67.6503 67.9657 67.4892C69.198 66.8286 70.2935 66.2191 71.2438 65.6765C72.9272 67.5933 74.1807 68.9489 74.1807 68.9489C74.1807 68.9489 73.2453 67.2863 71.99 65.2471C74.3672 63.8678 75.6428 63.0189 75.6428 63.0189C75.6428 63.0189 73.6967 63.545 71.4517 64.3816C70.5785 62.9927 69.6046 61.5184 68.7031 60.3209C71.0304 59.019 71.8961 58.4573 71.8961 58.4573C71.8961 58.4573 70.2557 58.9208 68.1816 59.6499C68.0776 59.5209 67.9752 59.3969 67.8745 59.2785C66.901 58.1332 65.7423 56.9615 64.6802 55.9492C65.9351 55.1779 66.5949 54.7169 66.5949 54.7169C66.5949 54.7169 65.5763 54.9922 64.163 55.4613ZM63.8349 56.4609C62.7571 57.1036 61.3774 57.8913 59.7198 58.7676C60.7172 59.7067 61.8278 60.8083 62.8038 61.909C63.0402 61.7828 63.2688 61.6657 63.4879 61.5591C64.4851 61.0742 65.5824 60.6178 66.6458 60.212C66.5675 60.1135 66.4896 60.0152 66.4122 59.9171C65.3622 58.5367 64.5132 57.3926 63.8349 56.4609ZM58.9801 59.1549C58.9594 59.1656 58.9386 59.1764 58.9178 59.1872C57.41 60.0198 55.891 60.7737 54.5544 61.4016C55.5287 62.3228 56.5853 63.4007 57.4561 64.4785C57.5869 64.6352 57.7216 64.8029 57.8593 64.98C59.0514 64.1718 60.3608 63.3189 61.5736 62.6031C60.5047 61.1963 59.6516 60.0589 58.9801 59.1549ZM65.4608 67.3594C64.0074 68.2751 62.4876 69.3158 61.3192 70.1364C60.439 68.703 59.3729 67.036 58.3951 65.6934C59.6516 65.0867 61.0492 64.3982 62.431 63.6907C63.4298 64.9348 64.4818 66.2012 65.4608 67.3594ZM68.0571 65.847C67.5419 66.1115 66.9651 66.4399 66.3598 66.8047C65.4995 65.4614 64.5728 64.0937 63.7306 63.0166C64.0187 62.8651 64.3039 62.7136 64.5846 62.5627C65.6323 62.0049 66.5466 61.5104 67.3402 61.0753C68.3778 62.3516 69.4609 63.6272 70.4512 64.7685C69.6358 65.0961 68.8132 65.4588 68.0571 65.847Z" fill="#E22626"/>
<path d="M104.159 68.0367C102.513 70.135 98.0352 69.2227 94.1052 66.1209C90.1753 63.0191 88.4388 58.8225 90.0839 56.7242C91.729 54.6259 96.2073 55.5382 100.137 58.64C103.976 61.7418 105.804 65.9384 104.159 68.0367Z" fill="#BF1A1A"/>
<path d="M105.305 66.6104L91.2012 55.2936L90.056 56.7157L104.16 68.0325L105.305 66.6104Z" fill="#ED2B2B"/>
<path d="M105.255 66.5769C103.61 68.6752 99.1318 67.7629 95.2019 64.6611C91.2719 61.5592 89.5355 57.3626 91.1805 55.2643C92.8256 53.166 97.304 54.0783 101.234 57.1802C105.164 60.282 106.9 64.5698 105.255 66.5769Z" fill="#E85350"/>
<path d="M94.562 55.1732C93.3739 55.1732 92.3685 55.8118 92.0944 56.7241C91.8202 57.6364 96.0243 59.5523 97.3952 59.5523C98.7661 59.5523 96.2071 55.1732 94.562 55.1732Z" fill="#E22626"/>
<path d="M97.4868 60.0996C96.847 59.9171 93.374 58.9136 92.6429 59.096C91.9117 59.2785 93.0085 61.1943 94.4708 62.5628C95.8417 63.9312 98.0351 65.8471 98.2179 64.2049C98.4921 62.4716 99.0405 60.4645 97.4868 60.0996Z" fill="#E22626"/>
<path d="M97.3039 56.5417C97.5781 57.2715 98.4007 58.64 98.5835 59.1873C98.7662 59.7347 99.4974 60.1909 100.503 59.5523C101.508 58.9136 101.782 58.1838 100.137 56.8153C98.3093 55.4469 96.9384 55.6294 97.3039 56.5417Z" fill="#E22626"/>
<path d="M99.5889 60.2821C100.32 60.1909 101.782 59.7347 102.239 59.7347C102.696 59.7347 103.702 60.3734 104.25 61.5594C104.707 62.7453 104.798 63.6577 103.245 62.8366C101.691 62.0155 100.686 61.5594 100.137 61.1944C99.4975 60.8295 98.8577 60.3734 99.5889 60.2821Z" fill="#E22626"/>
<path d="M99.0401 61.7416C98.9487 61.1942 99.4971 61.3767 100.502 61.8329C101.416 62.289 104.432 64.2048 104.432 65.0259C104.524 65.7558 104.067 66.7593 102.33 66.4856C100.594 66.2119 99.1315 65.7558 99.1315 64.3873C99.1315 63.1101 99.0401 62.289 99.0401 61.7416Z" fill="#E22626"/>
<path d="M96.2985 58.1839C96.2985 58.1839 95.476 56.9979 95.019 57.1803C94.4706 57.3628 94.7448 58.2751 96.2985 58.1839Z" fill="#FC8E8E"/>
<path d="M96.938 60.7381C96.938 60.7381 95.5671 60.1907 95.2016 60.3732C94.7446 60.5556 95.2016 61.5592 95.8413 61.4679C96.5725 61.2855 96.938 60.7381 96.938 60.7381Z" fill="#FC8E8E"/>
<path d="M97.4867 61.103C96.9384 61.5592 96.6642 62.7452 97.3953 62.6539C98.2179 62.5627 97.4867 61.103 97.4867 61.103Z" fill="#FC8E8E"/>
<path d="M99.3151 58.8224C99.3151 58.8224 98.4011 57.3627 99.2237 57.4539C99.9548 57.6364 99.3151 58.8224 99.3151 58.8224Z" fill="#FC8E8E"/>
<path d="M100.594 60.7382C100.594 60.7382 101.325 60.2821 101.965 60.647C102.605 61.1031 101.691 61.6505 100.594 60.7382Z" fill="#FC8E8E"/>
<path d="M99.9546 62.3805C99.9546 62.3805 100.046 63.0191 100.594 63.6577C101.051 64.2051 101.782 63.6577 101.234 63.2016C100.777 62.6542 99.9546 62.3805 99.9546 62.3805Z" fill="#FC8E8E"/>
<path d="M91.8209 76.4297C91.7295 78.163 88.9876 79.349 85.7889 79.0753C82.5901 78.8016 80.031 77.2507 80.2138 75.5174C80.3052 73.784 83.047 72.598 86.2458 72.8717C89.4446 73.1454 92.0037 74.6963 91.8209 76.4297Z" fill="#2C6D3B"/>
<path d="M91.9674 74.4837L80.2993 73.6357L80.16 75.5466L91.828 76.3945L91.9674 74.4837Z" fill="#2C6D3B"/>
<path d="M92.0035 74.4224C91.9121 76.1558 89.1703 77.3418 85.9715 77.0681C82.7727 76.7944 80.2136 75.2435 80.3964 73.5101C80.4878 71.7768 83.2296 70.5908 86.4284 70.8645C89.6272 71.1382 92.0949 72.7803 92.0035 74.4224Z" fill="#56B85F"/>
<path d="M86.1543 73.4189C86.1543 73.4189 83.8694 71.6855 85.5145 71.3206C87.1596 70.9557 86.1543 73.4189 86.1543 73.4189Z" fill="#B4EA9B"/>
<path d="M84.9661 74.1487C84.3264 74.1487 83.2296 74.2399 82.864 74.9698C82.4071 75.6996 85.0575 76.247 84.9661 74.1487Z" fill="#B4EA9B"/>
<path d="M88.3479 74.1487C88.9876 74.2399 89.993 74.5136 90.3586 75.2434C90.6327 76.0645 87.8909 76.247 88.3479 74.1487Z" fill="#B4EA9B"/>
<path d="M86.1545 74.0575C86.1545 74.0575 85.6976 75.061 86.0631 75.7909C86.4287 76.5207 87.3427 76.247 87.4341 75.6996C87.4341 74.6961 86.1545 74.0575 86.1545 74.0575Z" fill="#B4EA9B"/>
<path d="M84.4179 73.3277C84.4179 73.3277 80.9449 74.1487 81.9502 72.5978C82.7728 71.3206 84.4179 73.3277 84.4179 73.3277Z" fill="#B4EA9B"/>
<path d="M87.3423 73.1452C87.3423 73.1452 88.2562 71.6855 89.1702 72.1416C90.1755 72.7803 89.4444 73.2364 87.3423 73.1452Z" fill="#B4EA9B"/>
<path d="M89.2617 66.9417C90.1757 68.4014 88.7134 70.9559 85.9715 72.6893C83.2297 74.4226 80.3051 74.6051 79.3911 73.1454C78.4772 71.6857 79.9395 69.1313 82.6813 67.3979C85.4232 65.6645 88.3478 65.482 89.2617 66.9417Z" fill="#E55C00"/>
<path d="M88.2513 65.2924L78.3076 71.4441L79.3187 73.0725L89.2624 66.9209L88.2513 65.2924Z" fill="#E55C00"/>
<path d="M88.2563 65.2998C89.1703 66.7594 87.708 69.3139 84.9662 71.0473C82.2243 72.7806 79.2997 72.9631 78.3858 71.5034C77.4718 70.0437 78.9341 67.4893 81.676 65.7559C84.4178 64.0225 87.3424 63.8401 88.2563 65.2998Z" fill="#EFA349"/>
<path d="M80.2137 67.763C80.2137 67.763 80.9448 68.1279 80.8534 68.7665C80.762 69.4051 79.3911 70.6824 79.3911 70.6824C79.3911 70.6824 81.4932 69.7701 82.1329 69.5876C82.8641 69.4964 84.4178 70.3174 84.4178 70.3174C84.4178 70.3174 83.2297 68.949 84.1436 68.4016C85.0576 67.8542 87.251 67.3068 87.251 67.3068C87.251 67.3068 84.5092 67.2156 84.8748 66.3945C85.149 65.6647 85.2403 65.1173 85.2403 65.1173C85.2403 65.1173 83.6866 66.4858 82.9555 67.0331C82.2243 67.763 80.2137 67.763 80.2137 67.763Z" fill="#EB7E58"/>
<mask id="mask0" mask-type="alpha" maskUnits="userSpaceOnUse" x="42" y="17" width="18" height="14">
<path fill-rule="evenodd" clip-rule="evenodd" d="M42.8433 22.0169C42.9324 23.6635 43.9543 25.2283 45.6997 26.0592C44.5865 26.0535 43.5249 25.692 42.8494 25.0809C42.9634 26.3024 43.4523 27.4627 44.2916 28.4453C45.1311 29.4276 46.3862 30.1822 47.8169 30.5771C49.1884 30.9268 50.6708 30.9659 52.1238 30.9825C54.8601 30.7397 57.1019 29.4305 58.7841 27.6473C59.5619 26.5104 59.9468 25.2233 59.6763 24.031C59.4566 23.0258 58.7681 22.1084 57.9795 21.3129C57.2474 20.6092 56.4207 19.9328 55.4296 19.4277C54.4384 18.9223 53.463 18.6756 52.2286 18.6272C52.9532 18.9303 53.4485 19.4542 53.8168 20.0296C54.1852 20.6051 54.3649 21.235 54.577 21.84C53.5671 21.1231 52.1605 20.8456 50.7511 20.6149C49.3419 20.3844 47.8974 20.2261 46.658 19.73C45.4189 19.2338 44.3906 18.3056 44.4245 17.1965C43.4384 18.7182 42.754 20.3701 42.8433 22.0169Z" fill="white"/>
</mask>
<g mask="url(#mask0)">
<path fill-rule="evenodd" clip-rule="evenodd" d="M29.0796 23.2678L48.9006 8.10364L70.5361 24.5188L50.7149 39.6832L29.0796 23.2678Z" fill="#E85350"/>
</g>
<mask id="mask1" mask-type="alpha" maskUnits="userSpaceOnUse" x="48" y="22" width="11" height="8">
<path fill-rule="evenodd" clip-rule="evenodd" d="M48.802 25.4812C49.4502 26.3216 50.5547 26.9529 51.806 27.2431C50.974 27.3697 50.0622 27.2354 49.4521 26.8256C49.4979 27.6645 49.9249 28.4891 50.7172 29.036C51.9014 29.9287 53.9932 29.9474 55.5802 29.3848C59.2742 28.0477 59.018 23.7833 55.2468 23.2022C55.2316 23.1908 55.2156 23.1915 55.1997 23.192C55.1868 23.1925 55.1738 23.1929 55.161 23.1868C56.5328 24.0228 57.1093 24.9599 56.9949 25.8269C56.5982 25.0251 55.5157 24.5609 54.3885 24.3142C53.292 24.0906 52.09 24.0391 50.9902 23.8637C49.8603 23.6653 48.7389 23.3224 48.1489 22.5759C47.8987 23.5934 48.1538 24.6406 48.802 25.4812Z" fill="white"/>
</mask>
<g mask="url(#mask1)">
<path fill-rule="evenodd" clip-rule="evenodd" d="M37.1753 25.1439L52.0533 13.8341L68.099 25.9306L53.221 37.2404L37.1753 25.1439Z" fill="#EFC849"/>
</g>
<defs>
<linearGradient id="paint0_linear" x1="156.698" y1="44.2531" x2="5.66206" y2="44.2531" gradientUnits="userSpaceOnUse">
<stop stop-color="#024AA6"/>
<stop offset="1" stop-color="#0165E5"/>
</linearGradient>
</defs>
</svg>
